<svg width="325" height="292" viewBox="0 0 325 292" fill="none" xmlns="http://www.w3.org/2000/svg">
<rect width="325" height="292" rx="37" fill="black"/>
<g filter="url(#filter0_i_6_4)">
<path d="M288 0C308.435 0 325 16.5655 325 37V255C325 275.435 308.435 292 288 292H37C16.5655 292 0 275.435 0 255V37C0 16.5655 16.5655 0 37 0H288ZM68 184H88V113.146L178.59 198.207V198.021L222 152.707V227.144L242 227.159V108L224.479 125.52L224.47 125.509L178.59 169.912V169.709L88.1104 84.7686L88 84.8867V84.8398L68 63.8398V184ZM112 227H132V164.055L112 146V227ZM178.17 71L132 114.51L145.03 128.337L178.074 97.1963V161.517L198.452 139.257V51.501L178.17 71Z" fill="url(#paint0_linear_6_4)"/>
</g>
<defs>
<filter id="filter0_i_6_4" x="0" y="0" width="325" height="296" filterUnits="userSpaceOnUse" color-interpolation-filters="sRGB">
<feFlood flood-opacity="0" result="BackgroundImageFix"/>
<feBlend mode="normal" in="SourceGraphic" in2="BackgroundImageFix" result="shape"/>
<feColorMatrix in="SourceAlpha" type="matrix" values="0 0 0 0 0 0 0 0 0 0 0 0 0 0 0 0 0 0 127 0" result="hardAlpha"/>
<feOffset dy="4"/>
<feGaussianBlur stdDeviation="2"/>
<feComposite in2="hardAlpha" operator="arithmetic" k2="-1" k3="1"/>
<feColorMatrix type="matrix" values="0 0 0 0 0 0 0 0 0 0 0 0 0 0 0 0 0 0 0.31 0"/>
<feBlend mode="normal" in2="shape" result="effect1_innerShadow_6_4"/>
</filter>
<linearGradient id="paint0_linear_6_4" x1="220.5" y1="105" x2="220" y2="397" gradientUnits="userSpaceOnUse">
<stop stop-color="#6009D1"/>
<stop offset="0.617221" stop-color="#49079F"/>
<stop offset="1" stop-color="#3A067E"/>
</linearGradient>
</defs>
</svg>
